<mxfile host="app.diagrams.net" modified="2024-06-10T11:53:08.952Z" agent="Mozilla/5.0 (Windows NT 10.0; Win64; x64) AppleWebKit/537.36 (KHTML, like Gecko) Chrome/125.0.0.0 Safari/537.36" version="24.5.2" etag="S4ztzVK-3OUug9ONwCpF" type="github">
  <diagram name="Page-1" id="InCZXPQCjAZ9Q7Vai3Jq">
    <mxGraphModel>
      <root>
        <mxCell id="0" />
        <mxCell id="1" parent="0" />
      </root>
    </mxGraphModel>
  </diagram>
</mxfile>
